<mxfile host="app.diagrams.net" modified="2023-06-28T14:22:01.631Z" agent="Mozilla/5.0 (Windows NT 10.0; Win64; x64) AppleWebKit/537.36 (KHTML, like Gecko) Chrome/113.0.0.0 Safari/537.36" etag="6OEuErGqfh--RtHwUvVX" version="21.5.1" type="github">
  <diagram name="Page-1" id="8gE46lCKhNkrtQiSh8lZ">
    <mxGraphModel dx="1562" dy="839" grid="1" gridSize="10" guides="1" tooltips="1" connect="1" arrows="1" fold="1" page="1" pageScale="1" pageWidth="827" pageHeight="1169" math="0" shadow="0">
      <root>
        <mxCell id="0" />
        <mxCell id="1" parent="0" />
        <mxCell id="eBHST4mGm3YCmvCH0P3I-1" value="" style="rounded=1;whiteSpace=wrap;html=1;dashed=1;dashPattern=8 8;strokeWidth=2;" vertex="1" parent="1">
          <mxGeometry x="596.5" y="30" width="1090" height="400" as="geometry" />
        </mxCell>
        <mxCell id="eBHST4mGm3YCmvCH0P3I-63" value="" style="rounded=1;whiteSpace=wrap;html=1;fillColor=#ededed;" vertex="1" parent="1">
          <mxGeometry x="906.5" y="70" width="420" height="320" as="geometry" />
        </mxCell>
        <mxCell id="eBHST4mGm3YCmvCH0P3I-8" value="" style="rounded=1;whiteSpace=wrap;html=1;fillColor=#d5e8d4;strokeColor=#82b366;" vertex="1" parent="1">
          <mxGeometry x="951.5" y="210" width="330" height="60" as="geometry" />
        </mxCell>
        <mxCell id="eBHST4mGm3YCmvCH0P3I-3" value="" style="rounded=1;whiteSpace=wrap;html=1;fillColor=#dae8fc;strokeColor=#6c8ebf;" vertex="1" parent="1">
          <mxGeometry x="996.5" y="110" width="240" height="60" as="geometry" />
        </mxCell>
        <mxCell id="eBHST4mGm3YCmvCH0P3I-37" style="rounded=0;orthogonalLoop=1;jettySize=auto;html=1;exitX=0.5;exitY=1;exitDx=0;exitDy=0;entryX=0.5;entryY=0;entryDx=0;entryDy=0;endArrow=none;endFill=0;strokeColor=#d89d03;" edge="1" parent="1" source="eBHST4mGm3YCmvCH0P3I-4" target="eBHST4mGm3YCmvCH0P3I-13">
          <mxGeometry relative="1" as="geometry" />
        </mxCell>
        <mxCell id="eBHST4mGm3YCmvCH0P3I-38" style="rounded=0;orthogonalLoop=1;jettySize=auto;html=1;exitX=0.5;exitY=1;exitDx=0;exitDy=0;entryX=0.5;entryY=0;entryDx=0;entryDy=0;endArrow=none;endFill=0;strokeColor=#d89d03;" edge="1" parent="1" source="eBHST4mGm3YCmvCH0P3I-4" target="eBHST4mGm3YCmvCH0P3I-16">
          <mxGeometry relative="1" as="geometry" />
        </mxCell>
        <mxCell id="eBHST4mGm3YCmvCH0P3I-39" style="rounded=0;orthogonalLoop=1;jettySize=auto;html=1;exitX=0.5;exitY=1;exitDx=0;exitDy=0;entryX=0.5;entryY=0;entryDx=0;entryDy=0;endArrow=none;endFill=0;strokeColor=#d89d03;" edge="1" parent="1" source="eBHST4mGm3YCmvCH0P3I-4" target="eBHST4mGm3YCmvCH0P3I-17">
          <mxGeometry relative="1" as="geometry" />
        </mxCell>
        <mxCell id="eBHST4mGm3YCmvCH0P3I-41" style="rounded=0;orthogonalLoop=1;jettySize=auto;html=1;exitX=0.5;exitY=1;exitDx=0;exitDy=0;entryX=0.5;entryY=0;entryDx=0;entryDy=0;endArrow=none;endFill=0;strokeColor=#d89d03;" edge="1" parent="1" source="eBHST4mGm3YCmvCH0P3I-4" target="eBHST4mGm3YCmvCH0P3I-18">
          <mxGeometry relative="1" as="geometry" />
        </mxCell>
        <mxCell id="eBHST4mGm3YCmvCH0P3I-42" style="rounded=0;orthogonalLoop=1;jettySize=auto;html=1;exitX=0.5;exitY=1;exitDx=0;exitDy=0;endArrow=none;endFill=0;entryX=0.5;entryY=0;entryDx=0;entryDy=0;strokeColor=#d89d03;" edge="1" parent="1" source="eBHST4mGm3YCmvCH0P3I-4" target="eBHST4mGm3YCmvCH0P3I-19">
          <mxGeometry relative="1" as="geometry" />
        </mxCell>
        <mxCell id="eBHST4mGm3YCmvCH0P3I-4" value="" style="ellipse;whiteSpace=wrap;html=1;aspect=fixed;fillColor=#ffe6cc;strokeColor=#d79b00;" vertex="1" parent="1">
          <mxGeometry x="1021.5" y="117.5" width="45" height="45" as="geometry" />
        </mxCell>
        <mxCell id="eBHST4mGm3YCmvCH0P3I-9" value="" style="rounded=1;whiteSpace=wrap;html=1;fillColor=#f8cecc;strokeColor=#b85450;" vertex="1" parent="1">
          <mxGeometry x="1036.5" y="310" width="160" height="60" as="geometry" />
        </mxCell>
        <mxCell id="eBHST4mGm3YCmvCH0P3I-10" value="" style="triangle;whiteSpace=wrap;html=1;rotation=-90;fillColor=#ffe6cc;strokeColor=#d79b00;" vertex="1" parent="1">
          <mxGeometry x="1066.5" y="320" width="35" height="40" as="geometry" />
        </mxCell>
        <mxCell id="eBHST4mGm3YCmvCH0P3I-11" value="" style="triangle;whiteSpace=wrap;html=1;rotation=-90;fillColor=#ffe6cc;strokeColor=#d79b00;" vertex="1" parent="1">
          <mxGeometry x="1141.5" y="320" width="35" height="40" as="geometry" />
        </mxCell>
        <mxCell id="eBHST4mGm3YCmvCH0P3I-49" style="rounded=0;orthogonalLoop=1;jettySize=auto;html=1;exitX=0.5;exitY=1;exitDx=0;exitDy=0;entryX=1;entryY=0.5;entryDx=0;entryDy=0;endArrow=none;endFill=0;strokeColor=#d89d03;" edge="1" parent="1" source="eBHST4mGm3YCmvCH0P3I-13" target="eBHST4mGm3YCmvCH0P3I-10">
          <mxGeometry relative="1" as="geometry" />
        </mxCell>
        <mxCell id="eBHST4mGm3YCmvCH0P3I-50" style="rounded=0;orthogonalLoop=1;jettySize=auto;html=1;exitX=0.5;exitY=1;exitDx=0;exitDy=0;entryX=1;entryY=0.5;entryDx=0;entryDy=0;endArrow=none;endFill=0;strokeColor=#d89d03;" edge="1" parent="1" source="eBHST4mGm3YCmvCH0P3I-13" target="eBHST4mGm3YCmvCH0P3I-11">
          <mxGeometry relative="1" as="geometry" />
        </mxCell>
        <mxCell id="eBHST4mGm3YCmvCH0P3I-13" value="" style="whiteSpace=wrap;html=1;aspect=fixed;fillColor=#ffe6cc;strokeColor=#d79b00;" vertex="1" parent="1">
          <mxGeometry x="966.5" y="222.5" width="35" height="35" as="geometry" />
        </mxCell>
        <mxCell id="eBHST4mGm3YCmvCH0P3I-14" value="" style="ellipse;whiteSpace=wrap;html=1;aspect=fixed;fillColor=#ffe6cc;strokeColor=#d79b00;" vertex="1" parent="1">
          <mxGeometry x="1101.5" y="117.5" width="45" height="45" as="geometry" />
        </mxCell>
        <mxCell id="eBHST4mGm3YCmvCH0P3I-43" style="rounded=0;orthogonalLoop=1;jettySize=auto;html=1;exitX=0.5;exitY=1;exitDx=0;exitDy=0;entryX=0.5;entryY=0;entryDx=0;entryDy=0;endArrow=none;endFill=0;strokeColor=#d89d03;" edge="1" parent="1" source="eBHST4mGm3YCmvCH0P3I-15" target="eBHST4mGm3YCmvCH0P3I-19">
          <mxGeometry relative="1" as="geometry" />
        </mxCell>
        <mxCell id="eBHST4mGm3YCmvCH0P3I-44" style="rounded=0;orthogonalLoop=1;jettySize=auto;html=1;exitX=0.5;exitY=1;exitDx=0;exitDy=0;endArrow=none;endFill=0;strokeColor=#d89d03;" edge="1" parent="1" source="eBHST4mGm3YCmvCH0P3I-15" target="eBHST4mGm3YCmvCH0P3I-18">
          <mxGeometry relative="1" as="geometry" />
        </mxCell>
        <mxCell id="eBHST4mGm3YCmvCH0P3I-45" style="rounded=0;orthogonalLoop=1;jettySize=auto;html=1;exitX=0.5;exitY=1;exitDx=0;exitDy=0;endArrow=none;endFill=0;strokeColor=#d89d03;" edge="1" parent="1" source="eBHST4mGm3YCmvCH0P3I-15" target="eBHST4mGm3YCmvCH0P3I-17">
          <mxGeometry relative="1" as="geometry" />
        </mxCell>
        <mxCell id="eBHST4mGm3YCmvCH0P3I-46" style="rounded=0;orthogonalLoop=1;jettySize=auto;html=1;exitX=0.5;exitY=1;exitDx=0;exitDy=0;entryX=0.5;entryY=0;entryDx=0;entryDy=0;endArrow=none;endFill=0;strokeColor=#d89d03;" edge="1" parent="1" source="eBHST4mGm3YCmvCH0P3I-15" target="eBHST4mGm3YCmvCH0P3I-16">
          <mxGeometry relative="1" as="geometry" />
        </mxCell>
        <mxCell id="eBHST4mGm3YCmvCH0P3I-47" style="rounded=0;orthogonalLoop=1;jettySize=auto;html=1;exitX=0.5;exitY=1;exitDx=0;exitDy=0;endArrow=none;endFill=0;entryX=0.5;entryY=0;entryDx=0;entryDy=0;strokeColor=#d89d03;" edge="1" parent="1" source="eBHST4mGm3YCmvCH0P3I-15" target="eBHST4mGm3YCmvCH0P3I-13">
          <mxGeometry relative="1" as="geometry" />
        </mxCell>
        <mxCell id="eBHST4mGm3YCmvCH0P3I-15" value="" style="ellipse;whiteSpace=wrap;html=1;aspect=fixed;fillColor=#ffe6cc;strokeColor=#d79b00;" vertex="1" parent="1">
          <mxGeometry x="1176.5" y="117.5" width="45" height="45" as="geometry" />
        </mxCell>
        <mxCell id="eBHST4mGm3YCmvCH0P3I-51" style="rounded=0;orthogonalLoop=1;jettySize=auto;html=1;exitX=0.5;exitY=1;exitDx=0;exitDy=0;entryX=1;entryY=0.5;entryDx=0;entryDy=0;endArrow=none;endFill=0;strokeColor=#d89d03;" edge="1" parent="1" source="eBHST4mGm3YCmvCH0P3I-16" target="eBHST4mGm3YCmvCH0P3I-10">
          <mxGeometry relative="1" as="geometry" />
        </mxCell>
        <mxCell id="eBHST4mGm3YCmvCH0P3I-52" style="rounded=0;orthogonalLoop=1;jettySize=auto;html=1;exitX=0.5;exitY=1;exitDx=0;exitDy=0;entryX=1;entryY=0.5;entryDx=0;entryDy=0;endArrow=none;endFill=0;strokeColor=#d89d03;" edge="1" parent="1" source="eBHST4mGm3YCmvCH0P3I-16" target="eBHST4mGm3YCmvCH0P3I-11">
          <mxGeometry relative="1" as="geometry" />
        </mxCell>
        <mxCell id="eBHST4mGm3YCmvCH0P3I-16" value="" style="whiteSpace=wrap;html=1;aspect=fixed;fillColor=#ffe6cc;strokeColor=#d79b00;" vertex="1" parent="1">
          <mxGeometry x="1031.5" y="222.5" width="35" height="35" as="geometry" />
        </mxCell>
        <mxCell id="eBHST4mGm3YCmvCH0P3I-53" style="rounded=0;orthogonalLoop=1;jettySize=auto;html=1;exitX=0.5;exitY=1;exitDx=0;exitDy=0;entryX=1;entryY=0.5;entryDx=0;entryDy=0;endArrow=none;endFill=0;strokeColor=#d89d03;" edge="1" parent="1" source="eBHST4mGm3YCmvCH0P3I-17" target="eBHST4mGm3YCmvCH0P3I-10">
          <mxGeometry relative="1" as="geometry" />
        </mxCell>
        <mxCell id="eBHST4mGm3YCmvCH0P3I-56" style="rounded=0;orthogonalLoop=1;jettySize=auto;html=1;exitX=0.5;exitY=1;exitDx=0;exitDy=0;entryX=1;entryY=0.5;entryDx=0;entryDy=0;endArrow=none;endFill=0;strokeColor=#d89d03;" edge="1" parent="1" source="eBHST4mGm3YCmvCH0P3I-17" target="eBHST4mGm3YCmvCH0P3I-11">
          <mxGeometry relative="1" as="geometry" />
        </mxCell>
        <mxCell id="eBHST4mGm3YCmvCH0P3I-17" value="" style="whiteSpace=wrap;html=1;aspect=fixed;fillColor=#ffe6cc;strokeColor=#d79b00;" vertex="1" parent="1">
          <mxGeometry x="1099" y="222.5" width="35" height="35" as="geometry" />
        </mxCell>
        <mxCell id="eBHST4mGm3YCmvCH0P3I-54" style="rounded=0;orthogonalLoop=1;jettySize=auto;html=1;exitX=0.5;exitY=1;exitDx=0;exitDy=0;entryX=1;entryY=0.5;entryDx=0;entryDy=0;endArrow=none;endFill=0;strokeColor=#d89d03;" edge="1" parent="1" source="eBHST4mGm3YCmvCH0P3I-18" target="eBHST4mGm3YCmvCH0P3I-11">
          <mxGeometry relative="1" as="geometry" />
        </mxCell>
        <mxCell id="eBHST4mGm3YCmvCH0P3I-57" style="rounded=0;orthogonalLoop=1;jettySize=auto;html=1;exitX=0.5;exitY=1;exitDx=0;exitDy=0;entryX=1;entryY=0.5;entryDx=0;entryDy=0;endArrow=none;endFill=0;strokeColor=#d89d03;" edge="1" parent="1" source="eBHST4mGm3YCmvCH0P3I-18" target="eBHST4mGm3YCmvCH0P3I-10">
          <mxGeometry relative="1" as="geometry" />
        </mxCell>
        <mxCell id="eBHST4mGm3YCmvCH0P3I-18" value="" style="whiteSpace=wrap;html=1;aspect=fixed;fillColor=#ffe6cc;strokeColor=#d79b00;" vertex="1" parent="1">
          <mxGeometry x="1161.5" y="222.5" width="35" height="35" as="geometry" />
        </mxCell>
        <mxCell id="eBHST4mGm3YCmvCH0P3I-58" style="rounded=0;orthogonalLoop=1;jettySize=auto;html=1;exitX=0.5;exitY=1;exitDx=0;exitDy=0;entryX=1;entryY=0.5;entryDx=0;entryDy=0;endArrow=none;endFill=0;strokeColor=#d89d03;" edge="1" parent="1" source="eBHST4mGm3YCmvCH0P3I-19" target="eBHST4mGm3YCmvCH0P3I-11">
          <mxGeometry relative="1" as="geometry" />
        </mxCell>
        <mxCell id="eBHST4mGm3YCmvCH0P3I-59" style="rounded=0;orthogonalLoop=1;jettySize=auto;html=1;exitX=0.5;exitY=1;exitDx=0;exitDy=0;endArrow=none;endFill=0;entryX=1;entryY=0.5;entryDx=0;entryDy=0;strokeColor=#d89d03;" edge="1" parent="1" source="eBHST4mGm3YCmvCH0P3I-19" target="eBHST4mGm3YCmvCH0P3I-10">
          <mxGeometry relative="1" as="geometry" />
        </mxCell>
        <mxCell id="eBHST4mGm3YCmvCH0P3I-19" value="" style="whiteSpace=wrap;html=1;aspect=fixed;fillColor=#ffe6cc;strokeColor=#d79b00;" vertex="1" parent="1">
          <mxGeometry x="1226.5" y="222.5" width="35" height="35" as="geometry" />
        </mxCell>
        <mxCell id="eBHST4mGm3YCmvCH0P3I-23" value="" style="endArrow=none;html=1;rounded=0;exitX=0.5;exitY=0;exitDx=0;exitDy=0;entryX=0.5;entryY=1;entryDx=0;entryDy=0;strokeColor=#d89d03;" edge="1" parent="1" source="eBHST4mGm3YCmvCH0P3I-13" target="eBHST4mGm3YCmvCH0P3I-14">
          <mxGeometry width="50" height="50" relative="1" as="geometry">
            <mxPoint x="1066.5" y="340" as="sourcePoint" />
            <mxPoint x="1116.5" y="290" as="targetPoint" />
          </mxGeometry>
        </mxCell>
        <mxCell id="eBHST4mGm3YCmvCH0P3I-24" value="" style="endArrow=none;html=1;rounded=0;exitX=0.5;exitY=0;exitDx=0;exitDy=0;entryX=0.5;entryY=1;entryDx=0;entryDy=0;strokeColor=#d89d03;" edge="1" parent="1" source="eBHST4mGm3YCmvCH0P3I-16" target="eBHST4mGm3YCmvCH0P3I-14">
          <mxGeometry width="50" height="50" relative="1" as="geometry">
            <mxPoint x="994.5" y="233" as="sourcePoint" />
            <mxPoint x="1134.5" y="173" as="targetPoint" />
          </mxGeometry>
        </mxCell>
        <mxCell id="eBHST4mGm3YCmvCH0P3I-25" value="" style="endArrow=none;html=1;rounded=0;exitX=0.5;exitY=0;exitDx=0;exitDy=0;entryX=0.5;entryY=1;entryDx=0;entryDy=0;endFill=0;strokeColor=#d89d03;" edge="1" parent="1" source="eBHST4mGm3YCmvCH0P3I-17" target="eBHST4mGm3YCmvCH0P3I-14">
          <mxGeometry width="50" height="50" relative="1" as="geometry">
            <mxPoint x="1004.5" y="243" as="sourcePoint" />
            <mxPoint x="1126.5" y="160" as="targetPoint" />
          </mxGeometry>
        </mxCell>
        <mxCell id="eBHST4mGm3YCmvCH0P3I-26" value="" style="endArrow=none;html=1;rounded=0;exitX=0.5;exitY=0;exitDx=0;exitDy=0;entryX=0.5;entryY=1;entryDx=0;entryDy=0;strokeColor=#d89d03;" edge="1" parent="1" source="eBHST4mGm3YCmvCH0P3I-18" target="eBHST4mGm3YCmvCH0P3I-14">
          <mxGeometry width="50" height="50" relative="1" as="geometry">
            <mxPoint x="1014.5" y="253" as="sourcePoint" />
            <mxPoint x="1116.5" y="160" as="targetPoint" />
          </mxGeometry>
        </mxCell>
        <mxCell id="eBHST4mGm3YCmvCH0P3I-27" value="" style="endArrow=none;html=1;rounded=0;exitX=0.5;exitY=0;exitDx=0;exitDy=0;entryX=0.5;entryY=1;entryDx=0;entryDy=0;strokeColor=#d89d03;" edge="1" parent="1" source="eBHST4mGm3YCmvCH0P3I-19" target="eBHST4mGm3YCmvCH0P3I-14">
          <mxGeometry width="50" height="50" relative="1" as="geometry">
            <mxPoint x="1024.5" y="263" as="sourcePoint" />
            <mxPoint x="1126.5" y="160" as="targetPoint" />
          </mxGeometry>
        </mxCell>
        <mxCell id="eBHST4mGm3YCmvCH0P3I-62" style="edgeStyle=orthogonalEdgeStyle;rounded=0;orthogonalLoop=1;jettySize=auto;html=1;entryX=0;entryY=0.5;entryDx=0;entryDy=0;" edge="1" parent="1" source="eBHST4mGm3YCmvCH0P3I-61" target="eBHST4mGm3YCmvCH0P3I-3">
          <mxGeometry relative="1" as="geometry" />
        </mxCell>
        <mxCell id="eBHST4mGm3YCmvCH0P3I-61" value="&lt;span style=&quot;font-size: 23px;&quot;&gt;z&lt;sub&gt;i&lt;/sub&gt;&lt;/span&gt;" style="rounded=1;whiteSpace=wrap;html=1;fillColor=#FFFFFF;strokeColor=#0e8088;strokeWidth=2;" vertex="1" parent="1">
          <mxGeometry x="756.5" y="122.5" width="110" height="35" as="geometry" />
        </mxCell>
        <mxCell id="eBHST4mGm3YCmvCH0P3I-65" value="Hypernetwork" style="text;html=1;strokeColor=none;fillColor=none;align=center;verticalAlign=middle;whiteSpace=wrap;rounded=0;fontSize=16;" vertex="1" parent="1">
          <mxGeometry x="951.5" y="70" width="60" height="30" as="geometry" />
        </mxCell>
        <mxCell id="eBHST4mGm3YCmvCH0P3I-66" value="" style="rounded=1;whiteSpace=wrap;html=1;fillColor=#d0cee2;strokeColor=#56517e;" vertex="1" parent="1">
          <mxGeometry x="1366.5" y="70" width="200" height="320" as="geometry" />
        </mxCell>
        <mxCell id="eBHST4mGm3YCmvCH0P3I-68" value="&lt;font style=&quot;font-size: 24px;&quot;&gt;Aggergate&amp;nbsp; functions&lt;/font&gt;" style="text;html=1;strokeColor=none;fillColor=none;align=center;verticalAlign=middle;whiteSpace=wrap;rounded=0;" vertex="1" parent="1">
          <mxGeometry x="1411.5" y="210" width="110" height="30" as="geometry" />
        </mxCell>
        <mxCell id="eBHST4mGm3YCmvCH0P3I-69" value="" style="rounded=1;whiteSpace=wrap;html=1;dashed=1;dashPattern=8 8;strokeWidth=2;" vertex="1" parent="1">
          <mxGeometry x="118.5" y="630" width="583" height="450" as="geometry" />
        </mxCell>
        <mxCell id="eBHST4mGm3YCmvCH0P3I-70" value="&lt;h2 style=&quot;&quot;&gt;&lt;font style=&quot;font-size: 22px;&quot;&gt;Server&lt;/font&gt;&lt;/h2&gt;" style="rounded=0;whiteSpace=wrap;html=1;strokeColor=none;fillColor=none;" vertex="1" parent="1">
          <mxGeometry x="666.5" y="50" width="80" height="30" as="geometry" />
        </mxCell>
        <mxCell id="eBHST4mGm3YCmvCH0P3I-71" value="&lt;h2 style=&quot;&quot;&gt;&lt;font style=&quot;font-size: 22px;&quot;&gt;Client&lt;sub&gt;1&lt;/sub&gt;&lt;/font&gt;&lt;/h2&gt;" style="rounded=0;whiteSpace=wrap;html=1;strokeColor=none;fillColor=none;" vertex="1" parent="1">
          <mxGeometry x="165" y="640" width="80" height="30" as="geometry" />
        </mxCell>
        <mxCell id="eBHST4mGm3YCmvCH0P3I-108" value="" style="edgeStyle=orthogonalEdgeStyle;rounded=0;orthogonalLoop=1;jettySize=auto;html=1;strokeWidth=2;" edge="1" parent="1" source="eBHST4mGm3YCmvCH0P3I-73" target="eBHST4mGm3YCmvCH0P3I-107">
          <mxGeometry relative="1" as="geometry" />
        </mxCell>
        <mxCell id="eBHST4mGm3YCmvCH0P3I-73" value="" style="rounded=1;whiteSpace=wrap;html=1;strokeColor=#21d7e4;strokeWidth=2;" vertex="1" parent="1">
          <mxGeometry x="150" y="810" width="520" height="140" as="geometry" />
        </mxCell>
        <mxCell id="eBHST4mGm3YCmvCH0P3I-74" value="" style="whiteSpace=wrap;html=1;aspect=fixed;fillColor=#bed1ee;strokeColor=#73a6f7;" vertex="1" parent="1">
          <mxGeometry x="230" y="840" width="80" height="80" as="geometry" />
        </mxCell>
        <mxCell id="eBHST4mGm3YCmvCH0P3I-75" value="" style="whiteSpace=wrap;html=1;aspect=fixed;fillColor=#bed1ee;strokeColor=#73a6f7;" vertex="1" parent="1">
          <mxGeometry x="220" y="850" width="80" height="80" as="geometry" />
        </mxCell>
        <mxCell id="eBHST4mGm3YCmvCH0P3I-76" value="" style="whiteSpace=wrap;html=1;aspect=fixed;fillColor=#bed1ee;strokeColor=#73a6f7;" vertex="1" parent="1">
          <mxGeometry x="210" y="860" width="80" height="80" as="geometry" />
        </mxCell>
        <mxCell id="eBHST4mGm3YCmvCH0P3I-77" value="" style="whiteSpace=wrap;html=1;aspect=fixed;fillColor=#73a6f7;strokeColor=#1b50ee;" vertex="1" parent="1">
          <mxGeometry x="350" y="840" width="80" height="80" as="geometry" />
        </mxCell>
        <mxCell id="eBHST4mGm3YCmvCH0P3I-78" value="" style="whiteSpace=wrap;html=1;aspect=fixed;fillColor=#73a6f7;strokeColor=#1b50ee;" vertex="1" parent="1">
          <mxGeometry x="340" y="850" width="80" height="80" as="geometry" />
        </mxCell>
        <mxCell id="eBHST4mGm3YCmvCH0P3I-79" value="" style="whiteSpace=wrap;html=1;aspect=fixed;fillColor=#73a6f7;strokeColor=#1b50ee;" vertex="1" parent="1">
          <mxGeometry x="330" y="860" width="80" height="80" as="geometry" />
        </mxCell>
        <mxCell id="eBHST4mGm3YCmvCH0P3I-80" value="" style="whiteSpace=wrap;html=1;aspect=fixed;fillColor=#3664ec;strokeColor=#0730d5;" vertex="1" parent="1">
          <mxGeometry x="550" y="840" width="80" height="80" as="geometry" />
        </mxCell>
        <mxCell id="eBHST4mGm3YCmvCH0P3I-81" value="" style="whiteSpace=wrap;html=1;aspect=fixed;fillColor=#3664ec;strokeColor=#0730d5;" vertex="1" parent="1">
          <mxGeometry x="540" y="850" width="80" height="80" as="geometry" />
        </mxCell>
        <mxCell id="eBHST4mGm3YCmvCH0P3I-82" value="" style="whiteSpace=wrap;html=1;aspect=fixed;fillColor=#3664ec;strokeColor=#0730d5;" vertex="1" parent="1">
          <mxGeometry x="530" y="860" width="80" height="80" as="geometry" />
        </mxCell>
        <mxCell id="eBHST4mGm3YCmvCH0P3I-83" value="&lt;font face=&quot;Times New Roman&quot; style=&quot;font-size: 35px;&quot;&gt;...&lt;/font&gt;" style="text;html=1;strokeColor=none;fillColor=none;align=center;verticalAlign=middle;whiteSpace=wrap;rounded=0;" vertex="1" parent="1">
          <mxGeometry x="450" y="865" width="60" height="30" as="geometry" />
        </mxCell>
        <mxCell id="eBHST4mGm3YCmvCH0P3I-84" value="W&lt;sub&gt;1&lt;/sub&gt;&lt;sup&gt;Q&lt;/sup&gt;" style="text;html=1;strokeColor=none;fillColor=none;align=center;verticalAlign=middle;whiteSpace=wrap;rounded=0;" vertex="1" parent="1">
          <mxGeometry x="180" y="850" width="30" height="30" as="geometry" />
        </mxCell>
        <mxCell id="eBHST4mGm3YCmvCH0P3I-85" value="W&lt;sub&gt;1&lt;/sub&gt;&lt;sup&gt;K&lt;/sup&gt;" style="text;html=1;strokeColor=none;fillColor=none;align=center;verticalAlign=middle;whiteSpace=wrap;rounded=0;" vertex="1" parent="1">
          <mxGeometry x="190" y="835" width="30" height="30" as="geometry" />
        </mxCell>
        <mxCell id="eBHST4mGm3YCmvCH0P3I-86" value="W&lt;sub&gt;1&lt;/sub&gt;&lt;sup&gt;V&lt;/sup&gt;" style="text;html=1;strokeColor=none;fillColor=none;align=center;verticalAlign=middle;whiteSpace=wrap;rounded=0;" vertex="1" parent="1">
          <mxGeometry x="210" y="820" width="30" height="30" as="geometry" />
        </mxCell>
        <mxCell id="eBHST4mGm3YCmvCH0P3I-94" value="W&lt;sub&gt;2&lt;/sub&gt;&lt;sup&gt;K&lt;/sup&gt;" style="text;html=1;strokeColor=none;fillColor=none;align=center;verticalAlign=middle;whiteSpace=wrap;rounded=0;" vertex="1" parent="1">
          <mxGeometry x="310" y="835" width="30" height="30" as="geometry" />
        </mxCell>
        <mxCell id="eBHST4mGm3YCmvCH0P3I-95" value="W&lt;sub&gt;2&lt;/sub&gt;&lt;sup&gt;V&lt;/sup&gt;" style="text;html=1;strokeColor=none;fillColor=none;align=center;verticalAlign=middle;whiteSpace=wrap;rounded=0;" vertex="1" parent="1">
          <mxGeometry x="330" y="820" width="30" height="30" as="geometry" />
        </mxCell>
        <mxCell id="eBHST4mGm3YCmvCH0P3I-99" value="WL&lt;sup&gt;Q&lt;/sup&gt;" style="text;html=1;strokeColor=none;fillColor=none;align=center;verticalAlign=middle;whiteSpace=wrap;rounded=0;" vertex="1" parent="1">
          <mxGeometry x="490" y="850" width="30" height="30" as="geometry" />
        </mxCell>
        <mxCell id="eBHST4mGm3YCmvCH0P3I-100" value="W&lt;sub&gt;L&lt;/sub&gt;&lt;sup&gt;K&lt;/sup&gt;" style="text;html=1;strokeColor=none;fillColor=none;align=center;verticalAlign=middle;whiteSpace=wrap;rounded=0;" vertex="1" parent="1">
          <mxGeometry x="500" y="835" width="30" height="30" as="geometry" />
        </mxCell>
        <mxCell id="eBHST4mGm3YCmvCH0P3I-101" value="W&lt;sub&gt;L&lt;/sub&gt;&lt;sup&gt;V&lt;/sup&gt;" style="text;html=1;strokeColor=none;fillColor=none;align=center;verticalAlign=middle;whiteSpace=wrap;rounded=0;" vertex="1" parent="1">
          <mxGeometry x="530" y="820" width="30" height="30" as="geometry" />
        </mxCell>
        <mxCell id="eBHST4mGm3YCmvCH0P3I-103" value="W&lt;sub&gt;2&lt;/sub&gt;&lt;sup&gt;Q&lt;/sup&gt;" style="text;html=1;strokeColor=none;fillColor=none;align=center;verticalAlign=middle;whiteSpace=wrap;rounded=0;" vertex="1" parent="1">
          <mxGeometry x="300" y="850" width="30" height="30" as="geometry" />
        </mxCell>
        <mxCell id="eBHST4mGm3YCmvCH0P3I-106" style="edgeStyle=orthogonalEdgeStyle;rounded=0;orthogonalLoop=1;jettySize=auto;html=1;exitX=0.5;exitY=0;exitDx=0;exitDy=0;entryX=0.5;entryY=1;entryDx=0;entryDy=0;strokeWidth=2;" edge="1" parent="1" source="eBHST4mGm3YCmvCH0P3I-105" target="eBHST4mGm3YCmvCH0P3I-73">
          <mxGeometry relative="1" as="geometry" />
        </mxCell>
        <mxCell id="eBHST4mGm3YCmvCH0P3I-105" value="&lt;span style=&quot;font-size: 24px;&quot;&gt;D&lt;sub&gt;1&lt;/sub&gt;&lt;/span&gt;" style="rounded=1;whiteSpace=wrap;html=1;fillColor=#f7f7f7;strokeColor=#0e8088;strokeWidth=2;" vertex="1" parent="1">
          <mxGeometry x="235" y="990" width="350" height="60" as="geometry" />
        </mxCell>
        <mxCell id="eBHST4mGm3YCmvCH0P3I-107" value="&lt;font style=&quot;font-size: 24px;&quot;&gt;ML-Model&lt;/font&gt;" style="rounded=1;whiteSpace=wrap;html=1;strokeColor=#0e8088;strokeWidth=2;fillColor=#b0e3e6;" vertex="1" parent="1">
          <mxGeometry x="150" y="700" width="520" height="60" as="geometry" />
        </mxCell>
        <mxCell id="eBHST4mGm3YCmvCH0P3I-109" value="" style="rounded=1;whiteSpace=wrap;html=1;dashed=1;dashPattern=8 8;strokeWidth=2;" vertex="1" parent="1">
          <mxGeometry x="780" y="630" width="583" height="450" as="geometry" />
        </mxCell>
        <mxCell id="eBHST4mGm3YCmvCH0P3I-110" value="&lt;h2 style=&quot;&quot;&gt;&lt;font style=&quot;font-size: 22px;&quot;&gt;Client&lt;sub&gt;2&lt;/sub&gt;&lt;/font&gt;&lt;/h2&gt;" style="rounded=0;whiteSpace=wrap;html=1;strokeColor=none;fillColor=none;" vertex="1" parent="1">
          <mxGeometry x="826.5" y="640" width="80" height="30" as="geometry" />
        </mxCell>
        <mxCell id="eBHST4mGm3YCmvCH0P3I-111" value="" style="edgeStyle=orthogonalEdgeStyle;rounded=0;orthogonalLoop=1;jettySize=auto;html=1;strokeWidth=2;" edge="1" parent="1" source="eBHST4mGm3YCmvCH0P3I-112" target="eBHST4mGm3YCmvCH0P3I-135">
          <mxGeometry relative="1" as="geometry" />
        </mxCell>
        <mxCell id="eBHST4mGm3YCmvCH0P3I-112" value="" style="rounded=1;whiteSpace=wrap;html=1;strokeColor=#21d7e4;strokeWidth=2;" vertex="1" parent="1">
          <mxGeometry x="811.5" y="810" width="520" height="140" as="geometry" />
        </mxCell>
        <mxCell id="eBHST4mGm3YCmvCH0P3I-113" value="" style="whiteSpace=wrap;html=1;aspect=fixed;fillColor=#bed1ee;strokeColor=#73a6f7;" vertex="1" parent="1">
          <mxGeometry x="891.5" y="840" width="80" height="80" as="geometry" />
        </mxCell>
        <mxCell id="eBHST4mGm3YCmvCH0P3I-114" value="" style="whiteSpace=wrap;html=1;aspect=fixed;fillColor=#bed1ee;strokeColor=#73a6f7;" vertex="1" parent="1">
          <mxGeometry x="881.5" y="850" width="80" height="80" as="geometry" />
        </mxCell>
        <mxCell id="eBHST4mGm3YCmvCH0P3I-115" value="" style="whiteSpace=wrap;html=1;aspect=fixed;fillColor=#bed1ee;strokeColor=#73a6f7;" vertex="1" parent="1">
          <mxGeometry x="871.5" y="860" width="80" height="80" as="geometry" />
        </mxCell>
        <mxCell id="eBHST4mGm3YCmvCH0P3I-116" value="" style="whiteSpace=wrap;html=1;aspect=fixed;fillColor=#73a6f7;strokeColor=#1b50ee;" vertex="1" parent="1">
          <mxGeometry x="1011.5" y="840" width="80" height="80" as="geometry" />
        </mxCell>
        <mxCell id="eBHST4mGm3YCmvCH0P3I-117" value="" style="whiteSpace=wrap;html=1;aspect=fixed;fillColor=#73a6f7;strokeColor=#1b50ee;" vertex="1" parent="1">
          <mxGeometry x="1001.5" y="850" width="80" height="80" as="geometry" />
        </mxCell>
        <mxCell id="eBHST4mGm3YCmvCH0P3I-118" value="" style="whiteSpace=wrap;html=1;aspect=fixed;fillColor=#73a6f7;strokeColor=#1b50ee;" vertex="1" parent="1">
          <mxGeometry x="991.5" y="860" width="80" height="80" as="geometry" />
        </mxCell>
        <mxCell id="eBHST4mGm3YCmvCH0P3I-119" value="" style="whiteSpace=wrap;html=1;aspect=fixed;fillColor=#3664ec;strokeColor=#0730d5;" vertex="1" parent="1">
          <mxGeometry x="1211.5" y="840" width="80" height="80" as="geometry" />
        </mxCell>
        <mxCell id="eBHST4mGm3YCmvCH0P3I-120" value="" style="whiteSpace=wrap;html=1;aspect=fixed;fillColor=#3664ec;strokeColor=#0730d5;" vertex="1" parent="1">
          <mxGeometry x="1201.5" y="850" width="80" height="80" as="geometry" />
        </mxCell>
        <mxCell id="eBHST4mGm3YCmvCH0P3I-121" value="" style="whiteSpace=wrap;html=1;aspect=fixed;fillColor=#3664ec;strokeColor=#0730d5;" vertex="1" parent="1">
          <mxGeometry x="1191.5" y="860" width="80" height="80" as="geometry" />
        </mxCell>
        <mxCell id="eBHST4mGm3YCmvCH0P3I-122" value="&lt;font face=&quot;Times New Roman&quot; style=&quot;font-size: 35px;&quot;&gt;...&lt;/font&gt;" style="text;html=1;strokeColor=none;fillColor=none;align=center;verticalAlign=middle;whiteSpace=wrap;rounded=0;" vertex="1" parent="1">
          <mxGeometry x="1111.5" y="865" width="60" height="30" as="geometry" />
        </mxCell>
        <mxCell id="eBHST4mGm3YCmvCH0P3I-123" value="W&lt;sub&gt;1&lt;/sub&gt;&lt;sup&gt;Q&lt;/sup&gt;" style="text;html=1;strokeColor=none;fillColor=none;align=center;verticalAlign=middle;whiteSpace=wrap;rounded=0;" vertex="1" parent="1">
          <mxGeometry x="841.5" y="850" width="30" height="30" as="geometry" />
        </mxCell>
        <mxCell id="eBHST4mGm3YCmvCH0P3I-124" value="W&lt;sub&gt;1&lt;/sub&gt;&lt;sup&gt;K&lt;/sup&gt;" style="text;html=1;strokeColor=none;fillColor=none;align=center;verticalAlign=middle;whiteSpace=wrap;rounded=0;" vertex="1" parent="1">
          <mxGeometry x="851.5" y="835" width="30" height="30" as="geometry" />
        </mxCell>
        <mxCell id="eBHST4mGm3YCmvCH0P3I-125" value="W&lt;sub&gt;1&lt;/sub&gt;&lt;sup&gt;V&lt;/sup&gt;" style="text;html=1;strokeColor=none;fillColor=none;align=center;verticalAlign=middle;whiteSpace=wrap;rounded=0;" vertex="1" parent="1">
          <mxGeometry x="871.5" y="820" width="30" height="30" as="geometry" />
        </mxCell>
        <mxCell id="eBHST4mGm3YCmvCH0P3I-126" value="W&lt;sub&gt;2&lt;/sub&gt;&lt;sup&gt;K&lt;/sup&gt;" style="text;html=1;strokeColor=none;fillColor=none;align=center;verticalAlign=middle;whiteSpace=wrap;rounded=0;" vertex="1" parent="1">
          <mxGeometry x="971.5" y="835" width="30" height="30" as="geometry" />
        </mxCell>
        <mxCell id="eBHST4mGm3YCmvCH0P3I-127" value="W&lt;sub&gt;2&lt;/sub&gt;&lt;sup&gt;V&lt;/sup&gt;" style="text;html=1;strokeColor=none;fillColor=none;align=center;verticalAlign=middle;whiteSpace=wrap;rounded=0;" vertex="1" parent="1">
          <mxGeometry x="991.5" y="820" width="30" height="30" as="geometry" />
        </mxCell>
        <mxCell id="eBHST4mGm3YCmvCH0P3I-128" value="WL&lt;sup&gt;Q&lt;/sup&gt;" style="text;html=1;strokeColor=none;fillColor=none;align=center;verticalAlign=middle;whiteSpace=wrap;rounded=0;" vertex="1" parent="1">
          <mxGeometry x="1151.5" y="850" width="30" height="30" as="geometry" />
        </mxCell>
        <mxCell id="eBHST4mGm3YCmvCH0P3I-129" value="W&lt;sub&gt;L&lt;/sub&gt;&lt;sup&gt;K&lt;/sup&gt;" style="text;html=1;strokeColor=none;fillColor=none;align=center;verticalAlign=middle;whiteSpace=wrap;rounded=0;" vertex="1" parent="1">
          <mxGeometry x="1161.5" y="835" width="30" height="30" as="geometry" />
        </mxCell>
        <mxCell id="eBHST4mGm3YCmvCH0P3I-131" value="W&lt;sub&gt;L&lt;/sub&gt;&lt;sup&gt;V&lt;/sup&gt;" style="text;html=1;strokeColor=none;fillColor=none;align=center;verticalAlign=middle;whiteSpace=wrap;rounded=0;" vertex="1" parent="1">
          <mxGeometry x="1181.5" y="820" width="30" height="30" as="geometry" />
        </mxCell>
        <mxCell id="eBHST4mGm3YCmvCH0P3I-132" value="W&lt;sub&gt;2&lt;/sub&gt;&lt;sup&gt;Q&lt;/sup&gt;" style="text;html=1;strokeColor=none;fillColor=none;align=center;verticalAlign=middle;whiteSpace=wrap;rounded=0;" vertex="1" parent="1">
          <mxGeometry x="961.5" y="850" width="30" height="30" as="geometry" />
        </mxCell>
        <mxCell id="eBHST4mGm3YCmvCH0P3I-133" style="edgeStyle=orthogonalEdgeStyle;rounded=0;orthogonalLoop=1;jettySize=auto;html=1;exitX=0.5;exitY=0;exitDx=0;exitDy=0;entryX=0.5;entryY=1;entryDx=0;entryDy=0;strokeWidth=2;" edge="1" parent="1" source="eBHST4mGm3YCmvCH0P3I-134" target="eBHST4mGm3YCmvCH0P3I-112">
          <mxGeometry relative="1" as="geometry" />
        </mxCell>
        <mxCell id="eBHST4mGm3YCmvCH0P3I-134" value="&lt;span style=&quot;font-size: 24px;&quot;&gt;D&lt;sub&gt;1&lt;/sub&gt;&lt;/span&gt;" style="rounded=1;whiteSpace=wrap;html=1;fillColor=#f7f7f7;strokeColor=#0e8088;strokeWidth=2;" vertex="1" parent="1">
          <mxGeometry x="896.5" y="990" width="350" height="60" as="geometry" />
        </mxCell>
        <mxCell id="eBHST4mGm3YCmvCH0P3I-135" value="&lt;font style=&quot;font-size: 24px;&quot;&gt;ML-Model&lt;/font&gt;" style="rounded=1;whiteSpace=wrap;html=1;strokeColor=#0e8088;strokeWidth=2;fillColor=#b0e3e6;" vertex="1" parent="1">
          <mxGeometry x="811.5" y="700" width="520" height="60" as="geometry" />
        </mxCell>
        <mxCell id="eBHST4mGm3YCmvCH0P3I-136" value="&lt;font face=&quot;Times New Roman&quot; style=&quot;font-size: 55px;&quot;&gt;...&lt;/font&gt;" style="text;html=1;strokeColor=none;fillColor=none;align=center;verticalAlign=middle;whiteSpace=wrap;rounded=0;" vertex="1" parent="1">
          <mxGeometry x="1460" y="840" width="60" height="30" as="geometry" />
        </mxCell>
        <mxCell id="eBHST4mGm3YCmvCH0P3I-137" value="" style="rounded=1;whiteSpace=wrap;html=1;dashed=1;dashPattern=8 8;strokeWidth=2;" vertex="1" parent="1">
          <mxGeometry x="1590" y="630" width="583" height="450" as="geometry" />
        </mxCell>
        <mxCell id="eBHST4mGm3YCmvCH0P3I-138" value="&lt;h2 style=&quot;&quot;&gt;&lt;font style=&quot;font-size: 22px;&quot;&gt;Client&lt;sub&gt;N&lt;/sub&gt;&lt;/font&gt;&lt;/h2&gt;" style="rounded=0;whiteSpace=wrap;html=1;strokeColor=none;fillColor=none;" vertex="1" parent="1">
          <mxGeometry x="1636.5" y="640" width="80" height="30" as="geometry" />
        </mxCell>
        <mxCell id="eBHST4mGm3YCmvCH0P3I-139" value="" style="edgeStyle=orthogonalEdgeStyle;rounded=0;orthogonalLoop=1;jettySize=auto;html=1;strokeWidth=2;" edge="1" source="eBHST4mGm3YCmvCH0P3I-140" target="eBHST4mGm3YCmvCH0P3I-163" parent="1">
          <mxGeometry relative="1" as="geometry" />
        </mxCell>
        <mxCell id="eBHST4mGm3YCmvCH0P3I-140" value="" style="rounded=1;whiteSpace=wrap;html=1;strokeColor=#21d7e4;strokeWidth=2;" vertex="1" parent="1">
          <mxGeometry x="1621.5" y="810" width="520" height="140" as="geometry" />
        </mxCell>
        <mxCell id="eBHST4mGm3YCmvCH0P3I-141" value="" style="whiteSpace=wrap;html=1;aspect=fixed;fillColor=#bed1ee;strokeColor=#73a6f7;" vertex="1" parent="1">
          <mxGeometry x="1701.5" y="840" width="80" height="80" as="geometry" />
        </mxCell>
        <mxCell id="eBHST4mGm3YCmvCH0P3I-142" value="" style="whiteSpace=wrap;html=1;aspect=fixed;fillColor=#bed1ee;strokeColor=#73a6f7;" vertex="1" parent="1">
          <mxGeometry x="1691.5" y="850" width="80" height="80" as="geometry" />
        </mxCell>
        <mxCell id="eBHST4mGm3YCmvCH0P3I-143" value="" style="whiteSpace=wrap;html=1;aspect=fixed;fillColor=#bed1ee;strokeColor=#73a6f7;" vertex="1" parent="1">
          <mxGeometry x="1681.5" y="860" width="80" height="80" as="geometry" />
        </mxCell>
        <mxCell id="eBHST4mGm3YCmvCH0P3I-144" value="" style="whiteSpace=wrap;html=1;aspect=fixed;fillColor=#73a6f7;strokeColor=#1b50ee;" vertex="1" parent="1">
          <mxGeometry x="1821.5" y="840" width="80" height="80" as="geometry" />
        </mxCell>
        <mxCell id="eBHST4mGm3YCmvCH0P3I-145" value="" style="whiteSpace=wrap;html=1;aspect=fixed;fillColor=#73a6f7;strokeColor=#1b50ee;" vertex="1" parent="1">
          <mxGeometry x="1811.5" y="850" width="80" height="80" as="geometry" />
        </mxCell>
        <mxCell id="eBHST4mGm3YCmvCH0P3I-146" value="" style="whiteSpace=wrap;html=1;aspect=fixed;fillColor=#73a6f7;strokeColor=#1b50ee;" vertex="1" parent="1">
          <mxGeometry x="1801.5" y="860" width="80" height="80" as="geometry" />
        </mxCell>
        <mxCell id="eBHST4mGm3YCmvCH0P3I-147" value="" style="whiteSpace=wrap;html=1;aspect=fixed;fillColor=#3664ec;strokeColor=#0730d5;" vertex="1" parent="1">
          <mxGeometry x="2021.5" y="840" width="80" height="80" as="geometry" />
        </mxCell>
        <mxCell id="eBHST4mGm3YCmvCH0P3I-148" value="" style="whiteSpace=wrap;html=1;aspect=fixed;fillColor=#3664ec;strokeColor=#0730d5;" vertex="1" parent="1">
          <mxGeometry x="2011.5" y="850" width="80" height="80" as="geometry" />
        </mxCell>
        <mxCell id="eBHST4mGm3YCmvCH0P3I-149" value="" style="whiteSpace=wrap;html=1;aspect=fixed;fillColor=#3664ec;strokeColor=#0730d5;" vertex="1" parent="1">
          <mxGeometry x="2001.5" y="860" width="80" height="80" as="geometry" />
        </mxCell>
        <mxCell id="eBHST4mGm3YCmvCH0P3I-150" value="&lt;font face=&quot;Times New Roman&quot; style=&quot;font-size: 35px;&quot;&gt;...&lt;/font&gt;" style="text;html=1;strokeColor=none;fillColor=none;align=center;verticalAlign=middle;whiteSpace=wrap;rounded=0;" vertex="1" parent="1">
          <mxGeometry x="1921.5" y="865" width="60" height="30" as="geometry" />
        </mxCell>
        <mxCell id="eBHST4mGm3YCmvCH0P3I-151" value="W&lt;sub&gt;1&lt;/sub&gt;&lt;sup&gt;Q&lt;/sup&gt;" style="text;html=1;strokeColor=none;fillColor=none;align=center;verticalAlign=middle;whiteSpace=wrap;rounded=0;" vertex="1" parent="1">
          <mxGeometry x="1651.5" y="850" width="30" height="30" as="geometry" />
        </mxCell>
        <mxCell id="eBHST4mGm3YCmvCH0P3I-152" value="W&lt;sub&gt;1&lt;/sub&gt;&lt;sup&gt;K&lt;/sup&gt;" style="text;html=1;strokeColor=none;fillColor=none;align=center;verticalAlign=middle;whiteSpace=wrap;rounded=0;" vertex="1" parent="1">
          <mxGeometry x="1661.5" y="835" width="30" height="30" as="geometry" />
        </mxCell>
        <mxCell id="eBHST4mGm3YCmvCH0P3I-153" value="W&lt;sub&gt;1&lt;/sub&gt;&lt;sup&gt;V&lt;/sup&gt;" style="text;html=1;strokeColor=none;fillColor=none;align=center;verticalAlign=middle;whiteSpace=wrap;rounded=0;" vertex="1" parent="1">
          <mxGeometry x="1681.5" y="820" width="30" height="30" as="geometry" />
        </mxCell>
        <mxCell id="eBHST4mGm3YCmvCH0P3I-154" value="W&lt;sub&gt;2&lt;/sub&gt;&lt;sup&gt;K&lt;/sup&gt;" style="text;html=1;strokeColor=none;fillColor=none;align=center;verticalAlign=middle;whiteSpace=wrap;rounded=0;" vertex="1" parent="1">
          <mxGeometry x="1781.5" y="835" width="30" height="30" as="geometry" />
        </mxCell>
        <mxCell id="eBHST4mGm3YCmvCH0P3I-155" value="W&lt;sub&gt;2&lt;/sub&gt;&lt;sup&gt;V&lt;/sup&gt;" style="text;html=1;strokeColor=none;fillColor=none;align=center;verticalAlign=middle;whiteSpace=wrap;rounded=0;" vertex="1" parent="1">
          <mxGeometry x="1801.5" y="820" width="30" height="30" as="geometry" />
        </mxCell>
        <mxCell id="eBHST4mGm3YCmvCH0P3I-156" value="WL&lt;sup&gt;Q&lt;/sup&gt;" style="text;html=1;strokeColor=none;fillColor=none;align=center;verticalAlign=middle;whiteSpace=wrap;rounded=0;" vertex="1" parent="1">
          <mxGeometry x="1961.5" y="850" width="30" height="30" as="geometry" />
        </mxCell>
        <mxCell id="eBHST4mGm3YCmvCH0P3I-157" value="W&lt;sub&gt;L&lt;/sub&gt;&lt;sup&gt;K&lt;/sup&gt;" style="text;html=1;strokeColor=none;fillColor=none;align=center;verticalAlign=middle;whiteSpace=wrap;rounded=0;" vertex="1" parent="1">
          <mxGeometry x="1971.5" y="835" width="30" height="30" as="geometry" />
        </mxCell>
        <mxCell id="eBHST4mGm3YCmvCH0P3I-159" value="W&lt;sub&gt;L&lt;/sub&gt;&lt;sup&gt;V&lt;/sup&gt;" style="text;html=1;strokeColor=none;fillColor=none;align=center;verticalAlign=middle;whiteSpace=wrap;rounded=0;" vertex="1" parent="1">
          <mxGeometry x="1991.5" y="820" width="30" height="30" as="geometry" />
        </mxCell>
        <mxCell id="eBHST4mGm3YCmvCH0P3I-160" value="W&lt;sub&gt;2&lt;/sub&gt;&lt;sup&gt;Q&lt;/sup&gt;" style="text;html=1;strokeColor=none;fillColor=none;align=center;verticalAlign=middle;whiteSpace=wrap;rounded=0;" vertex="1" parent="1">
          <mxGeometry x="1771.5" y="850" width="30" height="30" as="geometry" />
        </mxCell>
        <mxCell id="eBHST4mGm3YCmvCH0P3I-161" style="edgeStyle=orthogonalEdgeStyle;rounded=0;orthogonalLoop=1;jettySize=auto;html=1;exitX=0.5;exitY=0;exitDx=0;exitDy=0;entryX=0.5;entryY=1;entryDx=0;entryDy=0;strokeWidth=2;" edge="1" source="eBHST4mGm3YCmvCH0P3I-162" target="eBHST4mGm3YCmvCH0P3I-140" parent="1">
          <mxGeometry relative="1" as="geometry" />
        </mxCell>
        <mxCell id="eBHST4mGm3YCmvCH0P3I-162" value="&lt;span style=&quot;font-size: 24px;&quot;&gt;D&lt;sub&gt;1&lt;/sub&gt;&lt;/span&gt;" style="rounded=1;whiteSpace=wrap;html=1;fillColor=#f7f7f7;strokeColor=#0e8088;strokeWidth=2;" vertex="1" parent="1">
          <mxGeometry x="1706.5" y="990" width="350" height="60" as="geometry" />
        </mxCell>
        <mxCell id="eBHST4mGm3YCmvCH0P3I-163" value="&lt;font style=&quot;font-size: 24px;&quot;&gt;ML-Model&lt;/font&gt;" style="rounded=1;whiteSpace=wrap;html=1;strokeColor=#0e8088;strokeWidth=2;fillColor=#b0e3e6;" vertex="1" parent="1">
          <mxGeometry x="1621.5" y="700" width="520" height="60" as="geometry" />
        </mxCell>
        <mxCell id="eBHST4mGm3YCmvCH0P3I-166" value="" style="endArrow=classic;html=1;rounded=0;strokeWidth=2;dashed=1;" edge="1" parent="1">
          <mxGeometry width="50" height="50" relative="1" as="geometry">
            <mxPoint x="300" y="610" as="sourcePoint" />
            <mxPoint x="680" y="450" as="targetPoint" />
          </mxGeometry>
        </mxCell>
        <mxCell id="eBHST4mGm3YCmvCH0P3I-167" value="" style="endArrow=none;html=1;rounded=0;strokeWidth=2;dashed=1;startArrow=classic;startFill=1;endFill=0;" edge="1" parent="1">
          <mxGeometry width="50" height="50" relative="1" as="geometry">
            <mxPoint x="340" y="620" as="sourcePoint" />
            <mxPoint x="720" y="460" as="targetPoint" />
          </mxGeometry>
        </mxCell>
        <mxCell id="eBHST4mGm3YCmvCH0P3I-168" value="" style="endArrow=classic;html=1;rounded=0;strokeWidth=2;dashed=1;" edge="1" parent="1">
          <mxGeometry width="50" height="50" relative="1" as="geometry">
            <mxPoint x="1010" y="610" as="sourcePoint" />
            <mxPoint x="1010" y="460" as="targetPoint" />
          </mxGeometry>
        </mxCell>
        <mxCell id="eBHST4mGm3YCmvCH0P3I-169" value="" style="endArrow=none;html=1;rounded=0;strokeWidth=2;dashed=1;startArrow=classic;startFill=1;endFill=0;" edge="1" parent="1">
          <mxGeometry width="50" height="50" relative="1" as="geometry">
            <mxPoint x="1041" y="610" as="sourcePoint" />
            <mxPoint x="1041" y="460" as="targetPoint" />
          </mxGeometry>
        </mxCell>
        <mxCell id="eBHST4mGm3YCmvCH0P3I-170" value="" style="endArrow=classic;html=1;rounded=0;dashed=1;strokeWidth=2;" edge="1" parent="1">
          <mxGeometry width="50" height="50" relative="1" as="geometry">
            <mxPoint x="1830" y="610" as="sourcePoint" />
            <mxPoint x="1480" y="450" as="targetPoint" />
          </mxGeometry>
        </mxCell>
        <mxCell id="eBHST4mGm3YCmvCH0P3I-172" value="" style="endArrow=none;html=1;rounded=0;dashed=1;strokeWidth=2;startArrow=classic;startFill=1;endFill=0;" edge="1" parent="1">
          <mxGeometry width="50" height="50" relative="1" as="geometry">
            <mxPoint x="1881.5" y="610" as="sourcePoint" />
            <mxPoint x="1531.5" y="450" as="targetPoint" />
          </mxGeometry>
        </mxCell>
        <mxCell id="eBHST4mGm3YCmvCH0P3I-174" value="&lt;div&gt;∆&lt;span style=&quot;font-size: 9.9626pt; font-family: CMMI10;&quot;&gt;W&lt;/span&gt;&lt;span style=&quot;font-family: CMMI10; font-size: 12.5px;&quot;&gt;&lt;sub&gt;1&lt;/sub&gt;&lt;/span&gt;&lt;span style=&quot;font-size: 15px; font-family: CMMI7;&quot;&gt;,&amp;nbsp;&lt;/span&gt;ξ&lt;sub&gt;1&lt;/sub&gt;&lt;/div&gt;" style="text;html=1;strokeColor=none;fillColor=none;align=center;verticalAlign=middle;whiteSpace=wrap;rounded=0;" vertex="1" parent="1">
          <mxGeometry x="410" y="500" width="60" height="30" as="geometry" />
        </mxCell>
        <mxCell id="eBHST4mGm3YCmvCH0P3I-175" value="&lt;div&gt;&lt;span style=&quot;font-size: 9.9626pt; font-family: CMMI10;&quot;&gt;W&lt;/span&gt;&lt;span style=&quot;font-family: CMMI10; font-size: 12.5px;&quot;&gt;&lt;sub&gt;1&lt;/sub&gt;&lt;/span&gt;&lt;span style=&quot;font-size: 15px; font-family: CMMI7;&quot;&gt;, E(&lt;/span&gt;ξ)&lt;/div&gt;" style="text;html=1;strokeColor=none;fillColor=none;align=center;verticalAlign=middle;whiteSpace=wrap;rounded=0;" vertex="1" parent="1">
          <mxGeometry x="530" y="550" width="60" height="30" as="geometry" />
        </mxCell>
        <mxCell id="eBHST4mGm3YCmvCH0P3I-176" value="&lt;div&gt;∆&lt;span style=&quot;font-size: 9.9626pt; font-family: CMMI10;&quot;&gt;W&lt;/span&gt;&lt;span style=&quot;font-family: CMMI10; font-size: 12.5px;&quot;&gt;&lt;sub&gt;2&lt;/sub&gt;&lt;/span&gt;&lt;span style=&quot;font-size: 15px; font-family: CMMI7;&quot;&gt;,&amp;nbsp;&lt;/span&gt;ξ&lt;sub&gt;2&lt;/sub&gt;&lt;/div&gt;" style="text;html=1;strokeColor=none;fillColor=none;align=center;verticalAlign=middle;whiteSpace=wrap;rounded=0;" vertex="1" parent="1">
          <mxGeometry x="931.5" y="530" width="60" height="30" as="geometry" />
        </mxCell>
        <mxCell id="eBHST4mGm3YCmvCH0P3I-177" value="&lt;div&gt;&lt;span style=&quot;font-size: 9.9626pt; font-family: CMMI10;&quot;&gt;W&lt;/span&gt;&lt;span style=&quot;font-family: CMMI10; font-size: 12.5px;&quot;&gt;&lt;sub&gt;2&lt;/sub&gt;&lt;/span&gt;&lt;span style=&quot;font-size: 15px; font-family: CMMI7;&quot;&gt;, E(&lt;/span&gt;ξ)&lt;/div&gt;" style="text;html=1;strokeColor=none;fillColor=none;align=center;verticalAlign=middle;whiteSpace=wrap;rounded=0;" vertex="1" parent="1">
          <mxGeometry x="1054" y="530" width="60" height="30" as="geometry" />
        </mxCell>
        <mxCell id="eBHST4mGm3YCmvCH0P3I-178" value="&lt;div&gt;&lt;span style=&quot;font-size: 9.9626pt; font-family: CMMI10;&quot;&gt;W&lt;/span&gt;&lt;span style=&quot;font-family: CMMI10; font-size: 10.4167px;&quot;&gt;N&lt;/span&gt;&lt;span style=&quot;font-size: 15px; font-family: CMMI7;&quot;&gt;, E(&lt;/span&gt;ξ)&lt;/div&gt;" style="text;html=1;strokeColor=none;fillColor=none;align=center;verticalAlign=middle;whiteSpace=wrap;rounded=0;" vertex="1" parent="1">
          <mxGeometry x="1751.5" y="510" width="60" height="30" as="geometry" />
        </mxCell>
        <mxCell id="eBHST4mGm3YCmvCH0P3I-179" value="&lt;div&gt;∆&lt;span style=&quot;font-size: 9.9626pt; font-family: CMMI10;&quot;&gt;W&lt;/span&gt;&lt;span style=&quot;font-family: CMMI10; font-size: 12.5px;&quot;&gt;&lt;sub&gt;N&lt;/sub&gt;&lt;/span&gt;&lt;span style=&quot;font-size: 15px; font-family: CMMI7;&quot;&gt;,&amp;nbsp;&lt;/span&gt;ξ&lt;sub&gt;2&lt;/sub&gt;&lt;/div&gt;" style="text;html=1;strokeColor=none;fillColor=none;align=center;verticalAlign=middle;whiteSpace=wrap;rounded=0;" vertex="1" parent="1">
          <mxGeometry x="1566.5" y="540" width="60" height="30" as="geometry" />
        </mxCell>
      </root>
    </mxGraphModel>
  </diagram>
</mxfile>
